<svg width="24" height="25" viewBox="0 0 24 25" fill="none" xmlns="http://www.w3.org/2000/svg">
<path fill-rule="evenodd" clip-rule="evenodd" d="M16 3.34375H8C5.23858 3.34375 3 5.58233 3 8.34375V16.3438C3 19.1052 5.23858 21.3438 8 21.3438H16C18.7614 21.3438 21 19.1052 21 16.3438V8.34375C21 5.58233 18.7614 3.34375 16 3.34375ZM19.25 16.3438C19.2445 18.1364 17.7926 19.5883 16 19.5938H8C6.20735 19.5883 4.75549 18.1364 4.75 16.3438V8.34375C4.75549 6.5511 6.20735 5.09924 8 5.09375H16C17.7926 5.09924 19.2445 6.5511 19.25 8.34375V16.3438ZM16.75 8.59375C17.3023 8.59375 17.75 8.14603 17.75 7.59375C17.75 7.04147 17.3023 6.59375 16.75 6.59375C16.1977 6.59375 15.75 7.04147 15.75 7.59375C15.75 8.14603 16.1977 8.59375 16.75 8.59375ZM12 7.84375C9.51472 7.84375 7.5 9.85847 7.5 12.3438C7.5 14.829 9.51472 16.8438 12 16.8438C14.4853 16.8438 16.5 14.829 16.5 12.3438C16.5027 11.1495 16.0294 10.0033 15.1849 9.15883C14.3404 8.31434 13.1943 7.84109 12 7.84375ZM9.25 12.3438C9.25 13.8625 10.4812 15.0938 12 15.0938C13.5188 15.0938 14.75 13.8625 14.75 12.3438C14.75 10.825 13.5188 9.59375 12 9.59375C10.4812 9.59375 9.25 10.825 9.25 12.3438Z" fill="black" fill-opacity="0.6"/>
</svg>
